# xmcd
#
# Track frame offsets: 
#        225
#        11055
#        23555
#        38088
#        47994
#        63172
#        75938
#        90541
#        104066
#        115291
#        131166
#        141963
#
# Disc length: 2071 seconds
#
# Revision: 0
# Processed by: cddbd v1.5.1PL0 Copyright (c) Steve Scherf et al.
# Submitted via: ExactAudioCopy v0.95a5
#
DISCID=9c08140c
DTITLE=Pete Tex - Die goldenen Saxophon Hits
DYEAR=1900
DGENRE=Slow Rock
TTITLE0=Angel Eyes
TTITLE1=Behind The Moon
TTITLE2=Fleur D'amour
TTITLE3=Down An Up
TTITLE4=Lonely
TTITLE5=Traumland Melodie
TTITLE6=Bella Luna
TTITLE7=Holiday Express
TTITLE8=Stripper Girl
TTITLE9=Clipper 696
TTITLE10=Cheerio
TTITLE11=Schu Bi Du Ba
EXTD=
EXTT0=
EXTT1=
EXTT2=
EXTT3=
EXTT4=
EXTT5=
EXTT6=
EXTT7=
EXTT8=
EXTT9=
EXTT10=
EXTT11=
PLAYORDER=
